<?xml version="1.0" standalone="no"?>
<!DOCTYPE svg PUBLIC "-//W3C//DTD SVG 20010904//EN"
 "http://www.w3.org/TR/2001/REC-SVG-20010904/DTD/svg10.dtd">
<svg version="1.0" xmlns="http://www.w3.org/2000/svg"
 width="750.000000pt" height="750.000000pt" viewBox="0 0 750.000000 750.000000"
 preserveAspectRatio="xMidYMid meet">
<metadata>
Created by potrace 1.15, written by Peter Selinger 2001-2017
</metadata>
<g transform="translate(0.000000,750.000000) scale(0.100000,-0.100000)"
fill="#000000" stroke="none">
<path d="M3430 7484 c-1097 -154 -1944 -1046 -2041 -2151 -31 -355 35 -685
258 -1288 244 -658 745 -1684 1354 -2772 313 -559 733 -1273 749 -1273 13 0
344 557 632 1065 889 1569 1476 2835 1662 3585 70 284 87 460 67 693 -73 823
-563 1543 -1301 1911 -222 110 -432 179 -680 222 -135 23 -557 28 -700 8z
m670 -433 c0 -4 19 -11 41 -14 23 -3 45 -10 48 -15 3 -5 16 -13 29 -16 31 -10
120 -101 128 -131 3 -14 10 -25 15 -25 4 0 11 -16 15 -35 3 -19 10 -35 15 -35
5 0 9 -54 9 -120 0 -66 -4 -120 -9 -120 -5 0 -11 -18 -15 -40 -3 -22 -11 -40
-16 -40 -6 0 -10 -7 -10 -15 0 -9 -7 -18 -15 -21 -8 -4 -15 -11 -15 -16 0 -15
-43 -58 -57 -58 -7 0 -13 -4 -13 -10 0 -5 -11 -12 -25 -16 -14 -3 -25 -10 -25
-14 0 -4 -12 -11 -27 -15 -15 -3 -31 -12 -35 -18 -10 -16 -266 -16 -276 0 -4
6 -20 15 -35 18 -15 4 -27 11 -27 16 0 5 -7 9 -15 9 -9 0 -18 7 -21 15 -4 8
-12 15 -19 15 -15 0 -65 45 -65 60 0 6 -6 13 -14 16 -8 3 -17 17 -21 32 -4 15
-11 29 -16 33 -5 3 -12 35 -16 72 -3 37 -10 67 -14 67 -5 0 -9 14 -9 30 0 17
4 30 9 30 5 0 11 28 13 62 3 35 10 64 16 66 7 2 12 15 12 28 0 14 7 27 15 30
8 4 15 11 15 16 0 18 97 107 124 114 14 3 26 10 26 15 0 4 16 11 35 15 19 3
35 10 35 15 0 5 47 9 105 9 58 0 105 -4 105 -9z m-480 -639 c0 -4 15 -13 33
-20 17 -6 44 -23 59 -37 15 -14 32 -25 38 -25 6 0 13 -7 16 -15 4 -8 12 -15
20 -15 8 0 22 -9 31 -20 10 -11 23 -20 30 -20 7 0 13 -4 13 -9 0 -5 10 -13 22
-16 11 -4 31 -18 43 -31 12 -13 28 -24 34 -24 6 0 14 -7 17 -15 4 -8 12 -15
20 -15 32 0 4 -90 -37 -120 -7 -5 -12 -27 -10 -47 0 -6 15 -14 31 -18 17 -4
30 -10 30 -15 0 -5 14 -11 30 -15 17 -4 30 -10 30 -15 0 -5 14 -11 30 -15 17
-4 30 -11 30 -16 0 -5 6 -9 13 -9 6 0 35 -11 62 -25 28 -13 56 -25 63 -25 6 0
12 -4 12 -10 0 -5 7 -10 15 -10 9 0 18 -6 21 -14 3 -8 19 -18 35 -21 16 -4 29
-10 29 -15 0 -5 14 -11 30 -15 17 -4 30 -10 30 -15 0 -5 14 -11 30 -15 17 -4
30 -10 30 -15 0 -5 14 -11 30 -15 17 -4 30 -10 30 -15 0 -5 14 -11 30 -15 17
-4 30 -10 30 -15 0 -5 14 -11 30 -15 17 -4 30 -11 30 -16 0 -5 7 -9 15 -9 9 0
18 -6 21 -14 3 -8 19 -18 35 -21 16 -4 29 -10 29 -15 0 -4 11 -11 25 -14 23
-6 36 -36 16 -36 -5 0 -12 -13 -16 -30 -4 -16 -10 -30 -15 -30 -5 0 -11 -13
-15 -30 -4 -16 -10 -30 -15 -30 -5 0 -11 -13 -15 -30 -4 -16 -10 -30 -15 -30
-5 0 -11 -13 -15 -30 -4 -16 -11 -30 -16 -30 -5 0 -9 -7 -9 -15 0 -8 -9 -15
-20 -15 -11 0 -20 4 -20 9 0 5 -13 12 -30 16 -16 4 -30 10 -30 15 0 5 -13 11
-29 15 -16 3 -32 13 -35 21 -3 8 -12 14 -21 14 -8 0 -15 4 -15 9 0 4 -20 14
-45 21 -25 7 -45 16 -45 21 0 4 -13 10 -30 14 -16 4 -30 10 -30 15 0 5 -13 11
-30 15 -16 4 -30 10 -30 15 0 5 -13 11 -30 15 -16 4 -30 10 -30 15 0 5 -13 11
-30 15 -16 4 -30 10 -30 15 0 4 -11 11 -25 14 -14 4 -25 10 -25 15 0 5 -13 12
-30 16 -16 4 -30 10 -30 15 0 4 -11 11 -25 14 -14 4 -25 10 -25 15 0 5 -13 12
-30 16 -16 4 -30 10 -30 15 0 5 -13 11 -30 15 -16 4 -30 10 -30 15 0 5 -13 11
-30 15 -16 4 -30 10 -30 15 0 5 -13 11 -30 15 -16 4 -30 11 -30 16 0 5 -7 9
-15 9 -8 0 -15 -5 -15 -11 0 -7 -11 -22 -24 -34 -13 -12 -27 -32 -31 -43 -3
-12 -11 -22 -16 -22 -5 0 -9 -6 -9 -13 0 -7 -9 -20 -20 -30 -11 -9 -20 -24
-20 -32 0 -8 -5 -15 -10 -15 -6 0 -14 -8 -17 -17 -4 -10 -16 -27 -29 -39 -12
-11 -25 -31 -29 -42 -3 -12 -11 -22 -16 -22 -5 0 -9 -6 -9 -14 0 -8 -8 -21
-19 -28 -10 -7 -21 -23 -25 -35 -4 -13 -12 -23 -17 -23 -5 0 -9 -4 -9 -10 0
-13 37 -50 50 -50 6 0 13 -7 16 -15 3 -8 15 -17 26 -21 12 -3 31 -17 43 -30
12 -13 26 -24 31 -24 5 0 21 -13 35 -29 14 -15 34 -31 46 -35 12 -4 24 -13 27
-21 3 -8 11 -15 17 -15 6 0 22 -11 34 -24 12 -13 31 -27 43 -30 11 -4 23 -13
26 -21 3 -8 10 -15 16 -15 7 0 25 -13 42 -30 16 -16 34 -30 39 -30 6 0 20 -11
33 -25 13 -14 28 -25 34 -25 6 0 16 -9 22 -20 6 -11 17 -20 25 -20 13 0 15
-65 15 -475 l0 -475 45 0 c25 0 45 -4 45 -10 0 -5 7 -10 16 -10 11 0 14 6 8
23 -4 12 -10 24 -15 27 -4 3 -11 19 -15 35 -4 17 -11 33 -16 36 -4 3 -11 42
-15 87 -3 45 -10 82 -14 82 -5 0 -9 38 -9 85 0 47 4 85 9 85 4 0 11 32 15 72
4 40 10 75 15 78 5 3 12 24 16 48 4 23 11 42 15 42 5 0 11 14 15 30 4 17 10
30 15 30 5 0 11 14 15 30 4 17 10 30 15 30 5 0 12 10 16 22 4 12 20 33 35 47
16 14 29 30 29 35 0 12 48 56 63 56 7 1 23 14 37 30 13 17 30 30 37 30 7 0 13
4 13 10 0 5 11 12 24 16 14 3 27 12 30 20 3 8 12 14 21 14 8 0 15 4 15 10 0 5
16 12 35 16 19 3 35 10 35 14 0 4 19 10 42 14 23 4 46 12 50 19 10 16 415 17
426 1 4 -6 25 -14 46 -17 22 -4 42 -10 45 -15 3 -5 23 -12 44 -16 20 -4 37
-11 37 -16 0 -6 7 -10 15 -10 9 0 18 -6 21 -14 3 -8 17 -17 31 -21 14 -3 39
-19 55 -36 16 -16 34 -29 38 -29 13 0 90 -75 90 -87 0 -5 9 -18 20 -28 11 -10
20 -24 20 -32 0 -7 4 -13 10 -13 5 0 12 -11 16 -25 3 -14 10 -25 14 -25 5 0
11 -13 15 -30 4 -16 10 -30 15 -30 5 0 11 -13 15 -30 4 -16 10 -30 15 -30 5 0
12 -21 16 -47 4 -27 12 -51 18 -55 7 -5 11 -68 11 -193 0 -125 -4 -188 -11
-193 -6 -4 -14 -28 -18 -54 -4 -27 -11 -48 -16 -48 -5 0 -11 -14 -15 -30 -4
-17 -10 -30 -15 -30 -5 0 -11 -13 -15 -30 -4 -16 -11 -30 -16 -30 -5 0 -9 -7
-9 -15 0 -9 -7 -18 -15 -21 -8 -4 -15 -12 -15 -20 0 -7 -11 -25 -25 -40 -14
-15 -25 -31 -25 -36 0 -12 -50 -58 -64 -58 -6 -1 -22 -14 -36 -30 -13 -17 -30
-30 -37 -30 -7 0 -13 -4 -13 -10 0 -5 -11 -12 -24 -16 -14 -3 -27 -12 -30 -20
-3 -8 -12 -14 -21 -14 -8 0 -15 -4 -15 -10 0 -5 -18 -13 -40 -16 -22 -4 -40
-10 -40 -14 0 -5 -19 -11 -42 -15 -24 -4 -46 -13 -50 -19 -10 -15 -416 -16
-426 0 -4 6 -25 14 -46 17 -22 4 -42 10 -45 15 -3 5 -21 13 -38 17 -18 3 -33
10 -33 15 0 5 -13 11 -29 15 -16 3 -32 13 -35 21 -3 8 -12 14 -21 14 -8 0 -15
4 -15 9 0 5 -9 13 -20 16 -26 8 -147 128 -155 154 -3 10 -12 22 -20 25 -8 3
-15 12 -15 21 0 8 -4 15 -9 15 -5 0 -11 -24 -13 -53 -3 -39 -11 -60 -29 -78
l-24 -24 -244 0 c-187 0 -245 3 -248 13 -3 6 -11 12 -18 12 -8 0 -17 15 -21
35 -3 19 -10 35 -15 35 -12 0 -12 37 0 44 5 3 12 21 15 40 5 25 13 36 31 40
24 6 35 26 15 26 -6 0 -10 118 -10 335 0 311 -1 336 -17 342 -10 4 -28 17 -40
30 -12 13 -26 23 -31 23 -8 0 -45 31 -103 85 -9 8 -19 15 -24 15 -4 0 -18 11
-30 24 -12 13 -32 27 -43 31 -12 3 -22 11 -22 16 0 5 -8 13 -17 16 -10 4 -31
19 -46 35 -16 15 -35 28 -43 28 -8 0 -17 7 -20 15 -3 8 -15 17 -26 21 -12 3
-31 17 -43 30 -12 13 -28 24 -34 24 -6 0 -14 7 -17 15 -3 8 -15 17 -26 21 -12
3 -31 17 -43 30 -12 13 -27 24 -33 24 -6 0 -16 9 -22 20 -6 11 -16 20 -22 20
-6 0 -21 11 -33 24 -12 13 -31 27 -43 30 -11 4 -23 13 -26 21 -3 8 -11 15 -17
15 -6 0 -22 11 -35 25 -13 14 -28 25 -34 25 -16 0 -12 60 5 66 8 4 15 11 15
18 0 13 26 50 53 74 9 9 17 22 17 29 0 7 4 13 10 13 5 0 12 11 16 25 3 14 10
25 15 25 5 0 13 8 16 18 4 9 16 26 28 37 11 11 27 36 35 55 8 19 24 44 35 55
12 11 24 28 28 38 3 9 11 17 16 17 5 0 12 11 15 25 4 14 11 25 16 25 6 0 10 6
10 13 0 7 9 20 20 30 11 9 20 23 20 31 0 8 7 16 15 20 8 3 15 10 15 16 0 6 11
21 25 34 14 13 25 29 25 35 0 6 6 14 14 17 8 3 17 16 20 30 4 13 11 24 16 24
6 0 10 6 10 13 0 7 9 20 20 30 11 9 20 23 20 31 0 8 7 16 15 20 8 3 15 12 15
21 0 8 4 15 9 15 5 0 13 10 16 22 4 11 18 31 31 43 13 12 24 28 24 34 0 6 7
14 15 17 8 4 15 12 15 19 0 8 8 21 17 31 19 19 36 45 52 82 6 12 15 22 21 22
5 0 10 5 10 12 0 17 33 47 53 47 9 1 17 -3 17 -7z m-832 -1409 c4 -6 26 -14
50 -18 23 -4 42 -10 42 -15 0 -4 12 -11 28 -14 35 -8 92 -38 92 -48 0 -5 7 -8
15 -8 9 0 18 -7 21 -15 4 -8 12 -15 20 -15 7 0 28 -16 47 -35 19 -19 39 -35
46 -35 6 0 11 -5 11 -10 0 -6 17 -27 38 -48 21 -20 41 -45 45 -54 3 -10 11
-18 16 -18 5 0 12 -11 15 -25 4 -14 10 -25 15 -25 5 0 12 -13 16 -30 4 -16 11
-30 15 -30 5 0 12 -16 16 -35 3 -19 10 -35 14 -35 5 0 11 -24 15 -52 4 -29 12
-56 18 -59 6 -4 10 -72 10 -174 0 -102 -4 -170 -10 -174 -6 -3 -14 -30 -18
-58 -4 -29 -10 -53 -15 -53 -4 0 -11 -16 -14 -35 -4 -19 -11 -35 -15 -35 -5 0
-12 -12 -15 -26 -4 -14 -11 -31 -17 -37 -39 -47 -49 -61 -49 -68 0 -14 -171
-179 -185 -179 -7 0 -15 -7 -19 -15 -3 -8 -12 -15 -21 -15 -8 0 -15 -4 -15 -9
0 -5 -13 -12 -30 -16 -16 -4 -30 -10 -30 -15 0 -5 -13 -11 -30 -15 -16 -4 -30
-10 -30 -15 0 -4 -19 -11 -42 -15 -24 -4 -46 -13 -50 -19 -10 -15 -416 -16
-426 0 -4 6 -28 14 -54 18 -27 4 -48 11 -48 16 0 5 -13 11 -30 15 -16 4 -30
10 -30 15 0 5 -13 11 -30 15 -16 4 -30 11 -30 16 0 5 -7 9 -15 9 -8 0 -23 9
-32 20 -10 11 -21 20 -26 20 -15 0 -147 138 -147 154 0 7 -7 16 -15 20 -8 3
-15 12 -15 20 0 7 -7 16 -15 20 -8 3 -15 12 -15 21 0 8 -4 15 -9 15 -5 0 -12
14 -16 30 -4 17 -10 30 -15 30 -4 0 -10 19 -14 42 -4 23 -11 45 -17 48 -5 4
-12 36 -16 73 -3 37 -10 67 -14 67 -5 0 -9 52 -9 115 0 63 4 115 9 115 4 0 12
32 15 70 4 39 11 70 16 70 5 0 12 20 16 45 3 25 10 45 14 45 5 0 11 13 15 29
3 16 13 32 21 35 8 3 14 12 14 21 0 8 5 15 10 15 6 0 10 7 10 15 0 8 9 23 20
32 11 10 20 22 20 28 0 12 103 115 115 115 4 0 18 11 30 24 12 13 32 27 43 31
12 3 22 10 22 15 0 5 14 11 30 15 17 4 30 10 30 15 0 5 15 12 33 15 17 4 35
12 38 17 3 5 25 12 48 15 22 3 41 9 41 14 0 13 58 17 243 15 114 -1 181 -6
185 -13z"/>
<path d="M4753 4828 c-35 -5 -63 -14 -63 -18 0 -5 -16 -12 -35 -16 -19 -3 -35
-10 -35 -14 0 -4 -11 -11 -25 -14 -14 -4 -25 -11 -25 -16 0 -6 -7 -10 -15 -10
-8 0 -19 -9 -25 -20 -6 -11 -15 -20 -21 -20 -14 0 -93 -80 -102 -102 -3 -10
-11 -18 -16 -18 -5 0 -12 -11 -15 -25 -4 -14 -10 -25 -15 -25 -5 0 -12 -13
-16 -30 -4 -16 -10 -30 -15 -30 -5 0 -12 -15 -15 -32 -4 -18 -12 -36 -17 -39
-5 -3 -11 -45 -15 -92 -3 -48 -10 -87 -14 -87 -5 0 -9 -7 -9 -15 0 -8 4 -15 9
-15 4 0 11 -39 14 -87 4 -47 10 -89 15 -92 5 -3 13 -21 17 -38 3 -18 10 -33
15 -33 5 0 11 -13 15 -30 4 -16 10 -30 15 -30 5 0 12 -10 15 -22 4 -11 18 -31
31 -43 13 -12 24 -26 24 -31 0 -5 14 -20 32 -34 17 -14 45 -37 61 -53 16 -15
39 -30 53 -33 13 -3 24 -10 24 -14 0 -4 12 -11 27 -15 15 -3 30 -11 34 -16 3
-5 23 -12 45 -16 21 -3 42 -11 46 -17 10 -15 316 -15 326 0 4 6 22 15 40 19
17 3 32 10 32 15 0 4 18 10 39 14 21 3 41 13 45 21 3 8 11 15 17 15 6 0 22 11
35 25 13 14 27 25 32 25 12 0 92 75 92 87 0 5 9 16 20 26 11 9 20 24 20 32 0
8 4 15 9 15 5 0 12 14 16 30 4 17 10 30 15 30 5 0 12 15 15 33 4 17 11 34 16
37 5 3 11 38 15 78 4 40 11 72 15 72 5 0 9 20 9 45 0 25 -4 45 -9 45 -4 0 -11
32 -15 72 -4 40 -10 75 -15 78 -5 3 -12 20 -16 38 -3 17 -10 32 -15 32 -5 0
-11 14 -15 30 -4 17 -10 30 -15 30 -5 0 -12 9 -15 21 -4 11 -25 38 -46 59 -21
21 -39 43 -39 49 0 6 -6 11 -13 11 -7 0 -24 13 -38 29 -14 15 -35 31 -47 35
-12 4 -22 11 -22 16 0 5 -13 11 -30 15 -16 4 -30 10 -30 15 0 4 -12 11 -27 15
-15 3 -30 10 -33 15 -16 26 -243 37 -367 18z"/>
<path d="M2415 4827 c-27 -5 -52 -13 -55 -17 -3 -4 -20 -11 -37 -15 -18 -3
-33 -10 -33 -15 0 -4 -11 -11 -25 -14 -14 -4 -25 -11 -25 -16 0 -6 -7 -10 -15
-10 -9 0 -18 -7 -21 -15 -4 -8 -12 -15 -19 -15 -18 0 -122 -104 -130 -129 -3
-12 -11 -21 -16 -21 -5 0 -9 -7 -9 -15 0 -9 -6 -18 -14 -21 -7 -3 -16 -23 -20
-45 -3 -21 -10 -39 -15 -39 -5 0 -12 -19 -16 -42 -4 -24 -12 -46 -19 -50 -15
-10 -14 -277 1 -286 6 -4 14 -26 18 -49 4 -24 11 -43 15 -43 5 0 11 -13 15
-30 4 -16 10 -30 15 -30 4 0 11 -12 15 -27 3 -15 17 -37 30 -48 12 -12 26 -32
30 -43 3 -12 10 -22 14 -22 4 0 24 -16 44 -35 20 -19 41 -35 47 -35 6 0 13 -6
16 -14 3 -8 16 -17 30 -20 13 -4 24 -10 24 -15 0 -5 14 -12 30 -16 17 -4 30
-10 30 -15 0 -4 19 -11 43 -15 23 -4 45 -13 49 -19 10 -15 306 -15 316 0 4 6
25 14 46 17 22 4 42 11 45 16 4 5 19 13 34 16 15 4 27 11 27 15 0 4 12 11 27
15 15 3 38 18 52 33 13 15 34 31 44 37 11 5 25 19 31 30 6 10 23 30 39 44 15
14 27 31 27 38 0 7 4 13 9 13 5 0 12 11 15 25 4 14 11 25 16 25 5 0 12 16 16
35 3 19 10 35 14 35 5 0 12 25 15 55 4 30 11 55 16 55 5 0 9 52 9 115 0 63 -4
115 -9 115 -5 0 -12 25 -16 55 -3 30 -10 55 -15 55 -5 0 -11 14 -15 30 -4 17
-10 30 -15 30 -5 0 -11 14 -15 30 -4 17 -11 30 -16 30 -5 0 -13 8 -16 18 -4 9
-35 46 -70 81 -35 35 -63 67 -63 71 0 4 -11 11 -25 14 -14 4 -25 10 -25 15 0
5 -13 12 -30 16 -16 4 -30 11 -30 15 0 5 -16 12 -35 16 -19 3 -35 10 -35 14 0
25 -266 38 -365 17z"/>
</g>
</svg>
