<?xml version="1.0" standalone="no"?>
<!DOCTYPE svg PUBLIC "-//W3C//DTD SVG 20010904//EN"
 "http://www.w3.org/TR/2001/REC-SVG-20010904/DTD/svg10.dtd">
<svg version="1.0" xmlns="http://www.w3.org/2000/svg"
 width="750.000000pt" height="750.000000pt" viewBox="0 0 750.000000 750.000000"
 preserveAspectRatio="xMidYMid meet">
<metadata>
Created by potrace 1.15, written by Peter Selinger 2001-2017
</metadata>
<g transform="translate(0.000000,750.000000) scale(0.100000,-0.100000)"
fill="#000000" stroke="none">
<path d="M3430 7484 c-1097 -154 -1944 -1046 -2041 -2151 -31 -355 35 -685
258 -1288 244 -658 745 -1684 1354 -2772 313 -559 733 -1273 749 -1273 13 0
344 557 632 1065 889 1569 1476 2835 1662 3585 70 284 87 460 67 693 -73 823
-563 1543 -1301 1911 -222 110 -432 179 -680 222 -135 23 -557 28 -700 8z"/>
</g>
</svg>
